<svg width="465" height="117" viewBox="0 0 465 117" fill="none" xmlns="http://www.w3.org/2000/svg">
  <g clip-path="url(#clip0_25_21)">
    <path d="M454.874 0H9.52615C4.265 0 0 4.265 0 9.52615V107.169C0 112.43 4.265 116.695 9.52615 116.695H454.874C460.135 116.695 464.4 112.43 464.4 107.169V9.52615C464.4 4.265 460.135 0 454.874 0Z" fill="#F9F9F9" />
    <path d="M23.8154 98.6843V17.8613H27.3947L86.5109 91.9875V17.8613H90.3212V98.6843H87.2037L27.6257 23.9808V98.6843H23.8154ZM183.06 99.2616L146.805 17.8613H151.077L184.792 94.2967L218.506 17.8613H222.547L186.293 99.2616H183.06ZM279.031 98.6843V17.8613H282.957V95.1049H331.682V98.6843H279.031ZM387.934 98.6843V17.8613H391.86V95.1049H440.585V98.6843H387.934Z" fill="#000080" />
  </g>
  <defs>
    <clipPath id="clip0_25_21">
      <rect width="464.4" height="116.695" fill="white" />
    </clipPath>
  </defs>
</svg>